<?xml version="1.0" standalone="no"?>
<!DOCTYPE svg PUBLIC "-//W3C//DTD SVG 1.1//EN" 
"http://www.w3.org/Graphics/SVG/1.1/DTD/svg11.dtd">

<svg width="3920" height="2800" version="1.1"
	xmlns="http://www.w3.org/2000/svg"
	xmlns:xlink="http://www.w3.org/1999/xlink">
<image x="0" y="0" width="280" height="280" xlink:href="galt-001.svg"/>
<image x="280" y="0" width="280" height="280" xlink:href="galt-002.svg"/>
<image x="560" y="0" width="280" height="280" xlink:href="galt-003.svg"/>
<image x="840" y="0" width="280" height="280" xlink:href="galt-004.svg"/>
<image x="1120" y="0" width="280" height="280" xlink:href="galt-005.svg"/>
<image x="1400" y="0" width="280" height="280" xlink:href="galt-006.svg"/>
<image x="1680" y="0" width="280" height="280" xlink:href="galt-007.svg"/>
<image x="1960" y="0" width="280" height="280" xlink:href="galt-008.svg"/>
<image x="2240" y="0" width="280" height="280" xlink:href="galt-009.svg"/>
<image x="2520" y="0" width="280" height="280" xlink:href="galt-010.svg"/>
<image x="2800" y="0" width="280" height="280" xlink:href="galt-011.svg"/>
<image x="3080" y="0" width="280" height="280" xlink:href="galt-012.svg"/>
<image x="3360" y="0" width="280" height="280" xlink:href="galt-013.svg"/>
<image x="3640" y="0" width="280" height="280" xlink:href="galt-014.svg"/>
<image x="0" y="280" width="280" height="280" xlink:href="galt-015.svg"/>
<image x="280" y="280" width="280" height="280" xlink:href="galt-016.svg"/>
<image x="560" y="280" width="280" height="280" xlink:href="galt-017.svg"/>
<image x="840" y="280" width="280" height="280" xlink:href="galt-018.svg"/>
<image x="1120" y="280" width="280" height="280" xlink:href="galt-019.svg"/>
<image x="1400" y="280" width="280" height="280" xlink:href="galt-020.svg"/>
<image x="1680" y="280" width="280" height="280" xlink:href="galt-021.svg"/>
<image x="1960" y="280" width="280" height="280" xlink:href="galt-022.svg"/>
<image x="2240" y="280" width="280" height="280" xlink:href="galt-023.svg"/>
<image x="2520" y="280" width="280" height="280" xlink:href="galt-024.svg"/>
<image x="2800" y="280" width="280" height="280" xlink:href="galt-025.svg"/>
<image x="3080" y="280" width="280" height="280" xlink:href="galt-026.svg"/>
<image x="3360" y="280" width="280" height="280" xlink:href="galt-027.svg"/>
<image x="3640" y="280" width="280" height="280" xlink:href="galt-028.svg"/>
<image x="0" y="560" width="280" height="280" xlink:href="galt-029.svg"/>
<image x="280" y="560" width="280" height="280" xlink:href="galt-030.svg"/>
<image x="560" y="560" width="280" height="280" xlink:href="galt-031.svg"/>
<image x="840" y="560" width="280" height="280" xlink:href="galt-032.svg"/>
<image x="1120" y="560" width="280" height="280" xlink:href="galt-033.svg"/>
<image x="1400" y="560" width="280" height="280" xlink:href="galt-034.svg"/>
<image x="1680" y="560" width="280" height="280" xlink:href="galt-035.svg"/>
<image x="1960" y="560" width="280" height="280" xlink:href="galt-036.svg"/>
<image x="2240" y="560" width="280" height="280" xlink:href="galt-037.svg"/>
<image x="2520" y="560" width="280" height="280" xlink:href="galt-038.svg"/>
<image x="2800" y="560" width="280" height="280" xlink:href="galt-039.svg"/>
<image x="3080" y="560" width="280" height="280" xlink:href="galt-040.svg"/>
<image x="3360" y="560" width="280" height="280" xlink:href="galt-041.svg"/>
<image x="3640" y="560" width="280" height="280" xlink:href="galt-042.svg"/>
<image x="0" y="840" width="280" height="280" xlink:href="galt-043.svg"/>
<image x="280" y="840" width="280" height="280" xlink:href="galt-044.svg"/>
<image x="560" y="840" width="280" height="280" xlink:href="galt-045.svg"/>
<image x="840" y="840" width="280" height="280" xlink:href="galt-046.svg"/>
<image x="1120" y="840" width="280" height="280" xlink:href="galt-047.svg"/>
<image x="1400" y="840" width="280" height="280" xlink:href="galt-048.svg"/>
<image x="1680" y="840" width="280" height="280" xlink:href="galt-049.svg"/>
<image x="1960" y="840" width="280" height="280" xlink:href="galt-050.svg"/>
<image x="2240" y="840" width="280" height="280" xlink:href="galt-051.svg"/>
<image x="2520" y="840" width="280" height="280" xlink:href="galt-052.svg"/>
<image x="2800" y="840" width="280" height="280" xlink:href="galt-053.svg"/>
<image x="3080" y="840" width="280" height="280" xlink:href="galt-054.svg"/>
<image x="3360" y="840" width="280" height="280" xlink:href="galt-055.svg"/>
<image x="3640" y="840" width="280" height="280" xlink:href="galt-056.svg"/>
<image x="0" y="1120" width="280" height="280" xlink:href="galt-057.svg"/>
<image x="280" y="1120" width="280" height="280" xlink:href="galt-058.svg"/>
<image x="560" y="1120" width="280" height="280" xlink:href="galt-059.svg"/>
<image x="840" y="1120" width="280" height="280" xlink:href="galt-060.svg"/>
<image x="1120" y="1120" width="280" height="280" xlink:href="galt-061.svg"/>
<image x="1400" y="1120" width="280" height="280" xlink:href="galt-062.svg"/>
<image x="1680" y="1120" width="280" height="280" xlink:href="galt-063.svg"/>
<image x="1960" y="1120" width="280" height="280" xlink:href="galt-064.svg"/>
<image x="2240" y="1120" width="280" height="280" xlink:href="galt-065.svg"/>
<image x="2520" y="1120" width="280" height="280" xlink:href="galt-066.svg"/>
<image x="2800" y="1120" width="280" height="280" xlink:href="galt-067.svg"/>
<image x="3080" y="1120" width="280" height="280" xlink:href="galt-068.svg"/>
<image x="3360" y="1120" width="280" height="280" xlink:href="galt-069.svg"/>
<image x="3640" y="1120" width="280" height="280" xlink:href="galt-070.svg"/>
<image x="0" y="1400" width="280" height="280" xlink:href="galt-071.svg"/>
<image x="280" y="1400" width="280" height="280" xlink:href="galt-072.svg"/>
<image x="560" y="1400" width="280" height="280" xlink:href="galt-073.svg"/>
<image x="840" y="1400" width="280" height="280" xlink:href="galt-074.svg"/>
<image x="1120" y="1400" width="280" height="280" xlink:href="galt-075.svg"/>
<image x="1400" y="1400" width="280" height="280" xlink:href="galt-076.svg"/>
<image x="1680" y="1400" width="280" height="280" xlink:href="galt-077.svg"/>
<image x="1960" y="1400" width="280" height="280" xlink:href="galt-078.svg"/>
<image x="2240" y="1400" width="280" height="280" xlink:href="galt-079.svg"/>
<image x="2520" y="1400" width="280" height="280" xlink:href="galt-080.svg"/>
<image x="2800" y="1400" width="280" height="280" xlink:href="galt-081.svg"/>
<image x="3080" y="1400" width="280" height="280" xlink:href="galt-082.svg"/>
<image x="3360" y="1400" width="280" height="280" xlink:href="galt-083.svg"/>
<image x="3640" y="1400" width="280" height="280" xlink:href="galt-084.svg"/>
<image x="0" y="1680" width="280" height="280" xlink:href="galt-085.svg"/>
<image x="280" y="1680" width="280" height="280" xlink:href="galt-086.svg"/>
<image x="560" y="1680" width="280" height="280" xlink:href="galt-087.svg"/>
<image x="840" y="1680" width="280" height="280" xlink:href="galt-088.svg"/>
<image x="1120" y="1680" width="280" height="280" xlink:href="galt-089.svg"/>
<image x="1400" y="1680" width="280" height="280" xlink:href="galt-090.svg"/>
<image x="1680" y="1680" width="280" height="280" xlink:href="galt-091.svg"/>
<image x="1960" y="1680" width="280" height="280" xlink:href="galt-092.svg"/>
<image x="2240" y="1680" width="280" height="280" xlink:href="galt-093.svg"/>
<image x="2520" y="1680" width="280" height="280" xlink:href="galt-094.svg"/>
<image x="2800" y="1680" width="280" height="280" xlink:href="galt-095.svg"/>
<image x="3080" y="1680" width="280" height="280" xlink:href="galt-096.svg"/>
<image x="3360" y="1680" width="280" height="280" xlink:href="galt-097.svg"/>
<image x="3640" y="1680" width="280" height="280" xlink:href="galt-098.svg"/>
<image x="0" y="1960" width="280" height="280" xlink:href="galt-099.svg"/>
<image x="280" y="1960" width="280" height="280" xlink:href="galt-100.svg"/>
<image x="560" y="1960" width="280" height="280" xlink:href="galt-101.svg"/>
<image x="840" y="1960" width="280" height="280" xlink:href="galt-102.svg"/>
<image x="1120" y="1960" width="280" height="280" xlink:href="galt-103.svg"/>
<image x="1400" y="1960" width="280" height="280" xlink:href="galt-104.svg"/>
<image x="1680" y="1960" width="280" height="280" xlink:href="galt-105.svg"/>
<image x="1960" y="1960" width="280" height="280" xlink:href="galt-106.svg"/>
<image x="2240" y="1960" width="280" height="280" xlink:href="galt-107.svg"/>
<image x="2520" y="1960" width="280" height="280" xlink:href="galt-108.svg"/>
<image x="2800" y="1960" width="280" height="280" xlink:href="galt-109.svg"/>
<image x="3080" y="1960" width="280" height="280" xlink:href="galt-110.svg"/>
<image x="3360" y="1960" width="280" height="280" xlink:href="galt-111.svg"/>
<image x="3640" y="1960" width="280" height="280" xlink:href="galt-112.svg"/>
<image x="0" y="2240" width="280" height="280" xlink:href="galt-113.svg"/>
<image x="280" y="2240" width="280" height="280" xlink:href="galt-114.svg"/>
<image x="560" y="2240" width="280" height="280" xlink:href="galt-115.svg"/>
<image x="840" y="2240" width="280" height="280" xlink:href="galt-116.svg"/>
<image x="1120" y="2240" width="280" height="280" xlink:href="galt-117.svg"/>
<image x="1400" y="2240" width="280" height="280" xlink:href="galt-118.svg"/>
<image x="1680" y="2240" width="280" height="280" xlink:href="galt-119.svg"/>
<image x="1960" y="2240" width="280" height="280" xlink:href="galt-120.svg"/>
<image x="2240" y="2240" width="280" height="280" xlink:href="galt-121.svg"/>
<image x="2520" y="2240" width="280" height="280" xlink:href="galt-122.svg"/>
<image x="2800" y="2240" width="280" height="280" xlink:href="galt-123.svg"/>
<image x="3080" y="2240" width="280" height="280" xlink:href="galt-124.svg"/>
<image x="3360" y="2240" width="280" height="280" xlink:href="galt-125.svg"/>
<image x="3640" y="2240" width="280" height="280" xlink:href="galt-126.svg"/>
<image x="0" y="2520" width="280" height="280" xlink:href="galt-127.svg"/>
<image x="280" y="2520" width="280" height="280" xlink:href="galt-128.svg"/>
<image x="560" y="2520" width="280" height="280" xlink:href="galt-129.svg"/>
<image x="840" y="2520" width="280" height="280" xlink:href="galt-130.svg"/>
<image x="1120" y="2520" width="280" height="280" xlink:href="galt-131.svg"/>
<image x="1400" y="2520" width="280" height="280" xlink:href="galt-132.svg"/>
<image x="1680" y="2520" width="280" height="280" xlink:href="galt-133.svg"/>
<image x="1960" y="2520" width="280" height="280" xlink:href="galt-134.svg"/>
<image x="2240" y="2520" width="280" height="280" xlink:href="galt-135.svg"/>
<image x="2520" y="2520" width="280" height="280" xlink:href="galt-136.svg"/>
<image x="2800" y="2520" width="280" height="280" xlink:href="galt-137.svg"/>
<image x="3080" y="2520" width="280" height="280" xlink:href="galt-138.svg"/>
<image x="3360" y="2520" width="280" height="280" xlink:href="galt-139.svg"/>
<image x="3640" y="2520" width="280" height="280" xlink:href="galt-140.svg"/>
</svg>
